HIERARCHY
ROOT Hips
{
  OFFSET 0 89.5177 0.535
  CHANNELS 6 Xposition Yposition Zposition Zrotation Xrotation Yrotation
  JOINT Spine
  {
    OFFSET 12.0259 -0.162855 1.69034e-005
    CHANNELS 3 Zrotation Xrotation Yrotation
    JOINT Spine1
    {
      OFFSET 15.3169 -0.0121922 0
      CHANNELS 3 Zrotation Xrotation Yrotation
      JOINT Spine2
      {
        OFFSET 15.3176 -0.0121908 0
        CHANNELS 3 Zrotation Xrotation Yrotation
        JOINT Neck
        {
          OFFSET 19.9142 1.56338 0
          CHANNELS 3 Zrotation Xrotation Yrotation
          JOINT Head
          {
            OFFSET 6.92651 0 0
            CHANNELS 3 Zrotation Xrotation Yrotation
            End Site
            {
              OFFSET 20.7666 0 0
            }
          }
          JOINT LeftShoulder
          {
            OFFSET -6.20654 0.708824 7.28219
            CHANNELS 3 Zrotation Xrotation Yrotation
            JOINT LeftArm
            {
              OFFSET 14.108 0 -1.52588e-005
              CHANNELS 3 Zrotation Xrotation Yrotation
              JOINT LeftForeArm
              {
                OFFSET 28.5802 0 0
                CHANNELS 3 Zrotation Xrotation Yrotation
                JOINT LeftHand
                {
                  OFFSET 27.092 0 0
                  CHANNELS 3 Zrotation Xrotation Yrotation
                  End Site
                  {
                    OFFSET 9.55928 -0.186424 0.145352
                  }
                }
              }
            }
          }
          JOINT RightShoulder
          {
            OFFSET -6.20654 0.708866 -7.28218
            CHANNELS 3 Zrotation Xrotation Yrotation
            JOINT RightArm
            {
              OFFSET 14.108 0 1.52588e-005
              CHANNELS 3 Zrotation Xrotation Yrotation
              JOINT RightForeArm
              {
                OFFSET 28.5802 0 0
                CHANNELS 3 Zrotation Xrotation Yrotation
                JOINT RightHand
                {
                  OFFSET 27.092 0 0
                  CHANNELS 3 Zrotation Xrotation Yrotation
                  End Site
                  {
                    OFFSET 9.55929 -0.186417 -0.145354
                  }
                }
              }
            }
          }
        }
      }
    }
  }
  JOINT LeftUpLeg
  {
    OFFSET 0.005 -0.535 8.837
    CHANNELS 3 Zrotation Xrotation Yrotation
    JOINT LeftLeg
    {
      OFFSET 39.9035 0 0
      CHANNELS 3 Zrotation Xrotation Yrotation
      JOINT LeftFoot
      {
        OFFSET 39.6689 0 0
        CHANNELS 3 Zrotation Xrotation Yrotation
        JOINT LeftToe
        {
          OFFSET 10.1624 13.6296 0
          CHANNELS 3 Zrotation Xrotation Yrotation
          End Site
          {
            OFFSET 8.38147 0 0
          }
        }
      }
    }
  }
  JOINT RightUpLeg
  {
    OFFSET 0.005 -0.535 -8.837
    CHANNELS 3 Zrotation Xrotation Yrotation
    JOINT RightLeg
    {
      OFFSET 39.9035 0 0
      CHANNELS 3 Zrotation Xrotation Yrotation
      JOINT RightFoot
      {
        OFFSET 39.6689 0 0
        CHANNELS 3 Zrotation Xrotation Yrotation
        JOINT RightToe
        {
          OFFSET 10.1624 13.6296 0
          CHANNELS 3 Zrotation Xrotation Yrotation
          End Site
          {
            OFFSET 8.38147 0 0
          }
        }
      }
    }
  }
}
MOTION
Frames:	19
Frame Time:	0.0333333
167.973 88.7575 137.325 -107.143 2.16658 -175.938 -0.0583659 1.90422 -1.46237 -0.0681168 3.80978 -2.92506 -0.0681165 3.80978 -2.92507 -8.31757e-012 -9.0191e-006 -5.27751e-005 -0.361137 9.78751 -7.33692 179.659 1.04858 -71.9835 0.175651 -6.30393 62.3395 -42.7469 -1.19271e-015 -0 12.1177 -49.3274 -175.296 -179.47 1.20389 66.2324 -12.568 -6.27489 -51.8231 -27.3779 0 7.95139e-016 -44.839 -62.6128 -29.6215 -34.0177 -0.435459 176.519 -16.4316 -3.18055e-015 1.53748e-016 5.39867 5.76952 -10.5328 90 0 -0 -20.2079 -15.6239 168.965 -26.6363 -3.18056e-015 -1.98785e-015 17.4275 -2.11379 4.55512 90 1.6027e-015 -9.54166e-015 
166.621 88.5969 138.275 -107.602 2.19514 -176.167 -0.0275769 1.91906 -1.32993 -0.0105634 3.83872 -2.66101 -0.0105631 3.83872 -2.66101 -8.3045e-012 -9.0191e-006 -5.27751e-005 -1.61024 9.28092 -7.63489 179.746 0.761092 -71.5398 -1.1758 -5.78816 61.8299 -44.8983 -4.09993e-016 1.59028e-015 11.4612 -47.471 -175.667 -179.461 1.19766 65.7945 -12.0194 -5.16007 -51.687 -30.8854 1.27222e-014 -7.95139e-015 -46.2605 -62.0956 -29.0583 -35.3279 -0.51671 177.553 -16.3841 -7.95139e-016 -0 4.73813 5.98401 -11.1574 90 1.59028e-015 -0 -20.1794 -16.215 170.427 -24.8305 3.18056e-015 -0 18.9597 -1.70571 3.75716 90 9.93923e-017 -3.18055e-015 
165.352 88.5422 139.163 -107.95 2.29705 -176.719 0.0559302 1.91499 -1.12519 0.149622 3.82897 -2.25398 0.149622 3.82897 -2.25399 -8.30763e-012 -9.0191e-006 -5.27751e-005 -3.07069 9.03186 -7.91949 179.841 0.473176 -71.4279 -1.73953 -5.49729 61.681 -46.6114 -1.19271e-015 -1.59028e-015 10.6464 -45.6831 -176.297 -179.499 1.11024 65.6954 -11.3702 -3.72805 -51.8029 -34.6196 0 -3.97569e-015 -48.891 -62.2449 -30.3688 -36.1392 -0.942316 178.852 -15.7192 7.95139e-016 1.98785e-016 3.78791 6.14316 -11.9972 90 3.18055e-015 -0 -20.056 -17.0645 171.983 -23.1174 6.36111e-015 1.19271e-015 19.7442 -1.76976 3.90538 90 -4.47266e-016 9.54166e-015 
164.205 88.5929 139.899 -108.253 2.73415 -177.355 0.152047 1.94828 -0.885755 0.334516 3.89444 -1.77806 0.334516 3.89444 -1.77807 -8.30753e-012 -9.0191e-006 -5.27751e-005 -4.16979 9.28621 -8.26368 179.968 0.0947751 -71.3193 -1.57214 -5.44684 61.5873 -47.7899 -3.18055e-015 1.59028e-015 9.80922 -44.4835 -176.918 -179.507 1.09529 65.7536 -11.0845 -2.31833 -51.7693 -38.0486 9.54166e-015 2.38542e-015 -51.7767 -62.6371 -32.521 -36.595 -1.03731 -179.698 -14.7269 0 -3.97569e-016 2.84469 6.32691 -12.8669 90 -1.59028e-015 -4.77083e-015 -20.3415 -17.2266 173.386 -22.3758 3.18056e-015 3.57812e-015 19.8428 -2.0046 4.38764 90 1.98785e-016 -3.18055e-015 
163.334 88.7699 140.474 -108.454 3.4259 -177.578 0.187413 2.00067 -0.719007 0.40031 3.99928 -1.44572 0.40031 3.99928 -1.44573 -8.30825e-012 -9.0191e-006 -5.27751e-005 -4.38128 9.80152 -8.3161 -179.944 -0.167912 -71.3621 -0.410297 -5.25683 61.679 -48.0227 -1.59028e-015 -0 9.39224 -44.6675 -177.248 -179.511 1.09812 65.987 -11.072 -1.47743 -51.6111 -40.8617 3.18055e-015 8.44835e-016 -57.3722 -64.4861 -38.1647 -36.7318 -0.530088 -178.55 -13.7433 1.59028e-015 -3.97569e-016 1.51597 6.5773 -13.3786 90 0 -1.59028e-015 -20.6729 -17.3125 174.237 -21.8255 0 -2.38542e-015 19.7452 -2.45064 5.29738 90 1.98785e-016 9.54166e-015 
162.719 88.9945 140.895 -108.436 4.0618 -177.336 0.175784 2.01143 -0.672545 0.375538 4.02112 -1.35235 0.375538 4.02112 -1.35236 -8.30275e-012 -9.0191e-006 -5.27751e-005 -3.85315 10.3502 -7.98223 -179.886 -0.342058 -71.5732 1.11721 -4.77298 61.5385 -47.4833 -7.95139e-016 -0 9.67574 -46.0854 -176.961 -179.474 1.19488 66.2562 -11.0656 -1.04019 -51.5659 -42.7693 0 2.5345e-015 -60.6982 -65.3356 -41.5901 -36.6739 0.467453 -177.878 -13.7316 1.59028e-015 -0 0.876604 7.15661 -14.5778 90 1.59028e-015 3.18055e-015 -20.3313 -16.5399 174.808 -20.5463 9.54167e-015 1.98785e-015 19.0337 -2.32739 5.0445 90 1.98785e-016 -9.54166e-015 
162.32 89.2017 141.215 -108.298 4.3683 -177.254 0.151875 1.94835 -0.639495 0.325791 3.89535 -1.2851 0.325792 3.89535 -1.28511 -8.30579e-012 -9.0191e-006 -5.27751e-005 -3.1429 10.7048 -7.60241 -179.827 -0.521828 -71.668 2.19778 -4.21167 60.6686 -46.4559 5.96354e-016 -0 10.5043 -47.6327 -176.341 -179.411 1.34217 66.2921 -10.7442 -0.727378 -51.5612 -43.9974 3.18055e-015 -4.47266e-015 -59.8376 -64.8208 -40.4418 -36.6581 0.714089 -177.34 -14.9646 1.59028e-015 3.97569e-016 1.50526 7.78712 -15.9061 90 0 -0 -19.5384 -16.4043 175.294 -18.8976 0 1.19271e-015 18.4647 -2.41441 5.21967 90 -1.98785e-016 -0 
162.047 89.3505 141.393 -108.271 4.35027 -177.272 0.102264 1.87721 -0.607901 0.224638 3.7537 -1.21997 0.224638 3.7537 -1.21998 -8.30957e-012 -9.0191e-006 -5.27751e-005 -2.46324 10.7171 -7.4264 -179.83 -0.510749 -71.6169 2.8964 -3.92954 59.4934 -44.6578 7.95139e-016 -0 11.0035 -48.2 -175.881 -179.285 1.62896 66.3114 -10.1099 -0.518227 -51.5669 -44.7744 -3.18055e-015 -3.97569e-015 -59.9692 -64.9397 -40.6145 -36.8094 0.340178 -176.974 -16.5713 -7.95139e-016 7.95139e-016 2.49693 8.29159 -16.9853 90 3.18055e-015 4.77083e-015 -18.6259 -16.3067 175.764 -17.0062 0 1.59028e-015 17.7069 -2.30877 5.00476 90 0 -3.18055e-015 
161.84 89.4272 141.441 -108.37 4.28412 -177.171 0.038802 1.83506 -0.596233 0.0967879 3.67009 -1.19446 0.0967882 3.67009 -1.19447 -8.30761e-012 -9.0191e-006 -5.27751e-005 -2.07264 10.553 -7.53752 -179.834 -0.493629 -71.4131 3.30896 -4.13908 58.3777 -41.749 -1.39149e-015 6.36111e-015 11.5437 -47.8283 -175.432 -179.175 1.88553 66.3574 -9.29544 -0.648282 -51.4061 -44.9242 3.18055e-015 -3.97569e-016 -57.8149 -64.951 -37.8534 -37.3999 -0.044408 -176.753 -18.526 2.38542e-015 -7.95139e-016 3.36357 8.69713 -17.8607 90 1.59028e-015 -3.18055e-015 -18.456 -16.6416 175.759 -16.1997 0 -0 17.657 -2.50987 5.42062 90 1.19271e-015 -0 
161.736 89.4401 141.32 -108.411 4.00452 -176.988 -0.00345106 1.77314 -0.594278 0.011511 3.54668 -1.18913 0.0115113 3.54668 -1.18914 -8.31127e-012 -9.0191e-006 -5.27751e-005 -2.33444 10.3287 -7.85996 -179.9 -0.290828 -71.018 3.8561 -4.73069 57.4292 -37.9477 -1.3418e-015 -3.18055e-015 11.7744 -46.7132 -175.428 -179.135 1.97364 66.3389 -8.27096 -0.971658 -51.0735 -44.2593 3.18055e-015 -3.97569e-015 -54.0894 -64.3434 -33.4279 -38.3959 -0.317214 -176.77 -20.9216 1.59028e-015 -0 3.96759 9.15795 -18.8552 90 3.18055e-015 4.77083e-015 -18.6772 -16.9261 175.364 -16.262 -3.18056e-015 7.95139e-016 17.8844 -2.62603 5.66869 90 0 3.18055e-015 
161.773 89.4078 141.076 -108.302 3.7146 -176.84 0.0227986 1.71576 -0.57914 0.0629926 3.43167 -1.15957 0.0629929 3.43167 -1.15958 -8.30959e-012 -9.0191e-006 -5.27751e-005 -3.1627 10.2176 -8.21997 179.978 0.0623863 -70.4598 4.64534 -5.80425 56.7154 -33.5693 -1.98785e-016 3.18055e-015 11.25 -45.1477 -176.145 -179.164 1.9031 66.268 -7.46909 -1.35427 -50.5093 -42.5398 6.36111e-015 -3.97569e-015 -47.5833 -62.1148 -25.9604 -39.5653 -0.334253 -176.792 -23.6882 -1.59028e-015 -0 4.44261 9.59549 -19.8008 90 4.77083e-015 -0 -18.8411 -17.2292 174.857 -16.5984 3.18056e-015 1.19271e-015 18.1324 -2.71278 5.85933 90 0 -3.18055e-015 
161.986 89.3687 140.725 -108.084 3.40697 -176.742 0.0813251 1.66067 -0.566786 0.179197 3.32093 -1.13648 0.179197 3.32093 -1.13649 -8.31017e-012 -9.0191e-006 -5.27751e-005 -3.74481 10.1659 -8.38996 179.791 0.566637 -69.8127 5.94755 -7.22391 56.2131 -29.0069 7.95139e-016 -0 10.016 -42.9285 -177.553 -179.209 1.7843 66.0891 -6.84644 -1.62271 -49.8689 -39.7281 0 7.95139e-016 -41.0133 -58.9755 -18.6261 -40.6631 -0.130271 -176.774 -26.4749 7.95139e-016 -0 4.82884 9.92567 -20.5158 90 -3.18055e-015 -0 -18.6977 -17.2083 174.383 -16.788 6.36111e-015 1.19271e-015 18.0692 -2.57761 5.5992 90 1.98785e-016 6.36111e-015 
162.343 89.3195 140.288 -107.921 3.45463 -176.7 0.119263 1.66786 -0.552826 0.254785 3.33495 -1.10966 0.254785 3.33495 -1.10967 -8.30258e-012 -9.0191e-006 -5.27751e-005 -4.11793 10.1571 -8.4394 179.592 1.07396 -69.176 7.91848 -8.73063 56.0352 -24.8627 2.38542e-015 -0 9.04691 -40.3028 -178.918 -179.236 1.7172 66.0135 -6.07426 -1.49796 -49.5466 -36.076 3.18055e-015 7.95139e-016 -35.4582 -55.5227 -12.9513 -41.8246 0.548953 -176.358 -29.4311 -7.95139e-016 1.59028e-015 4.66667 9.62363 -19.8425 90 1.59028e-015 6.36111e-015 -18.4509 -17.2173 173.993 -16.8048 0 1.19271e-015 17.9976 -2.61528 5.6951 90 0 6.36111e-015 
162.845 89.2616 139.747 -107.914 3.89371 -176.541 0.122067 1.71114 -0.577885 0.261572 3.42143 -1.16003 0.261573 3.42143 -1.16004 -8.31234e-012 -9.0191e-006 -5.27751e-005 -4.43653 10.3626 -8.43281 179.456 1.39504 -68.6914 9.85561 -9.50525 55.9789 -22.0007 0 3.18055e-015 8.51221 -38.3001 -179.826 -179.274 1.639 66.1193 -5.17289 -1.20482 -49.6159 -32.3146 -3.18055e-015 6.36111e-015 -31.1662 -54.1155 -9.20996 -42.5601 1.51354 -175.627 -31.3041 -1.19271e-015 -0 3.42591 8.30513 -16.9936 90 -1.59028e-015 -1.59028e-015 -18.4334 -16.9213 173.484 -16.9934 6.36111e-015 -1.19271e-015 17.9006 -2.73555 5.9672 90 1.98785e-016 -6.36111e-015 
163.513 89.1632 139.1 -108.068 4.68936 -176.528 0.0873149 1.74489 -0.569097 0.192103 3.48929 -1.14148 0.192103 3.48929 -1.14149 -8.31014e-012 -9.0191e-006 -5.27751e-005 -4.62231 10.8457 -8.49262 179.451 1.38481 -68.3537 11.4605 -9.38516 56.0759 -20.5001 -3.18055e-015 3.18055e-015 8.53748 -37.1078 179.784 -179.348 1.49488 66.4229 -4.18978 -0.885297 -49.9745 -29.1181 0 -0 -27.6069 -55.1248 -6.58468 -42.7856 3.23986 -174.238 -31.5736 -7.95139e-016 -0 1.93694 6.17675 -12.5378 90 0 -0 -18.3536 -16.1769 173.203 -17.071 0 -5.96354e-016 17.6343 -2.77099 6.07682 90 -3.97569e-016 3.18055e-015 
164.089 88.998 138.286 -109.137 6.20512 -176.119 -0.109737 1.86146 -0.630317 -0.199129 3.72449 -1.25789 -0.199129 3.72449 -1.2579 -8.30856e-012 -9.0191e-006 -5.27751e-005 -4.82419 11.4392 -8.51385 179.51 1.22395 -68.2021 12.4709 -8.38188 56.2669 -20.0349 -1.59028e-015 -3.18055e-015 8.81803 -36.7971 179.843 -179.356 1.49589 66.6976 -3.78032 -1.02478 -50.2482 -27.0068 0 -1.59028e-015 -23.6578 -57.2803 -3.20019 -43.1378 5.15903 -172.688 -29.9581 1.98785e-016 -1.59028e-015 0.0931546 3.60969 -7.32314 90 0 7.95139e-016 -21.2852 -19.6422 171.278 -19.3574 -6.36111e-015 1.19271e-015 20.6054 -6.04296 12.892 90 0 -0 
165.292 88.8481 137.467 -108.7 6.74525 -176.713 -0.0288902 1.71374 -0.506403 -0.0426521 3.42815 -1.01245 -0.0426518 3.42815 -1.01246 -8.30807e-012 -9.0191e-006 -5.27751e-005 -5.06141 12.0782 -8.45954 179.552 1.12164 -68.2089 13.4429 -7.22613 56.4946 -19.6712 0 3.18055e-015 9.11481 -38.2159 179.874 -179.324 1.57055 66.7189 -3.6052 -1.51124 -50.2312 -26.0102 0 -1.59028e-015 -21.0218 -58.881 -0.705859 -41.2359 5.63059 -171.142 -27.3168 -1.98785e-016 -7.95139e-016 0.344842 3.31743 -6.77185 90 1.2424e-017 3.97569e-016 -17.9606 -14.1494 172.899 -16.7256 3.18056e-015 2.68359e-015 16.6997 -2.63374 5.90063 90 -6.21202e-017 6.36111e-015 
166.363 88.6576 136.342 -109.117 7.62016 -176.66 -0.08058 1.61892 -0.499752 -0.147117 3.23894 -0.997651 -0.147117 3.23894 -0.997661 -8.30689e-012 -9.0191e-006 -5.27751e-005 -5.60841 12.6001 -8.28616 179.54 1.15081 -68.2249 14.4909 -6.43208 56.7263 -19.1998 0 -0 8.90722 -39.8423 179.7 -179.283 1.65198 66.5139 -3.22261 -2.1134 -49.886 -26.1569 1.59028e-015 4.77083e-015 -20.8766 -59.8065 -0.473903 -39.6309 5.32988 -170.297 -24.7346 -1.98785e-016 1.59028e-015 2.59313 4.86392 -9.97949 90 -3.97569e-016 7.95139e-016 -17.7116 -13.3524 172.322 -16.2335 -3.18056e-015 -1.04362e-015 16.2613 -2.68327 6.05609 90 -2.98177e-016 3.18055e-015 
167.474 88.4553 135.032 -109.641 8.40784 -176.399 -0.131467 1.51512 -0.533478 -0.248945 3.03186 -1.06386 -0.248945 3.03186 -1.06387 -8.30513e-012 -9.0191e-006 -5.27751e-005 -6.28457 12.9892 -8.00789 179.527 1.18307 -68.2402 15.1384 -6.0888 56.9211 -18.4895 -3.18055e-015 6.36111e-015 9.12782 -41.1472 179.661 -179.234 1.73214 66.1481 -2.34396 -2.64034 -49.33 -27.2968 -3.18055e-015 3.18055e-015 -23.1869 -60.4221 -2.56834 -38.337 5.17145 -170.14 -23.5724 0 -0 6.33184 6.15064 -12.723 90 7.95139e-016 -0 -17.6479 -12.6565 171.384 -15.6992 3.18056e-015 -0 15.6623 -2.78123 6.28507 90 1.98785e-016 3.18055e-015 
